<svg width="56" height="56" viewBox="0 0 56 56" fill="none" xmlns="http://www.w3.org/2000/svg">
<path d="M27.9993 34.8832L35.116 40.3082C35.466 40.5804 35.816 40.5901 36.166 40.3373C36.516 40.0846 36.6132 39.7443 36.4577 39.3165L33.5993 30.5082L40.6577 25.4915C41.0077 25.2582 41.1243 24.9373 41.0077 24.529C40.891 24.1207 40.6188 23.9165 40.191 23.9165H31.5577L28.816 14.8165C28.6993 14.3887 28.4271 14.1748 27.9993 14.1748C27.5716 14.1748 27.2993 14.3887 27.1827 14.8165L24.3827 23.9165H15.7493C15.3216 23.9165 15.0493 24.1207 14.9327 24.529C14.816 24.9373 14.9327 25.2582 15.2827 25.4915L22.341 30.5082L19.541 39.3748C19.3855 39.7637 19.4827 40.0846 19.8327 40.3373C20.1827 40.5901 20.5327 40.5804 20.8827 40.3082L27.9993 34.8832ZM27.9993 51.3332C24.6938 51.3332 21.6216 50.7401 18.7827 49.554C15.9438 48.3679 13.4743 46.7248 11.3743 44.6248C9.27435 42.5248 7.63129 40.0554 6.44518 37.2165C5.25907 34.3776 4.66602 31.3054 4.66602 27.9998C4.66602 24.7332 5.25907 21.6804 6.44518 18.8415C7.63129 16.0026 9.27435 13.5332 11.3743 11.4332C13.4743 9.33317 15.9438 7.68039 18.7827 6.47484C21.6216 5.26928 24.6938 4.6665 27.9993 4.6665C31.266 4.6665 34.3188 5.26928 37.1577 6.47484C39.9966 7.68039 42.466 9.33317 44.566 11.4332C46.666 13.5332 48.3188 16.0026 49.5243 18.8415C50.7299 21.6804 51.3327 24.7332 51.3327 27.9998C51.3327 31.3054 50.7299 34.3776 49.5243 37.2165C48.3188 40.0554 46.666 42.5248 44.566 44.6248C42.466 46.7248 39.9966 48.3679 37.1577 49.554C34.3188 50.7401 31.266 51.3332 27.9993 51.3332Z" fill="url(#paint0_linear_782_9123)"/>
<defs>
<linearGradient id="paint0_linear_782_9123" x1="27.9993" y1="4.6665" x2="27.9993" y2="51.3332" gradientUnits="userSpaceOnUse">
<stop stop-color="#F2BF53"/>
<stop offset="1" stop-color="#E67158"/>
</linearGradient>
</defs>
</svg>
