<svg width="56" height="56" viewBox="0 0 56 56" fill="none" xmlns="http://www.w3.org/2000/svg">
<g clip-path="url(#clip0_782_9130)">
<path d="M37.4999 37.9902C38.8834 37.2004 39.2347 35.0566 40.3578 33.9482C41.481 32.8398 43.6531 32.4951 44.4537 31.1289C45.2434 29.7822 44.4701 27.7559 44.8865 26.2178C45.2879 24.7285 46.9109 23.3613 46.9109 21.75C46.9109 20.1387 45.2019 18.7695 44.7991 17.2842C44.3828 15.7461 45.1565 13.7197 44.3671 12.373C43.567 11.0078 41.3954 10.6621 40.2722 9.55371C39.1491 8.44531 38.7987 6.30176 37.4153 5.51172C36.0507 4.73252 33.9973 5.49573 32.4387 5.08447C31.0182 4.68652 29.6327 3 27.9999 3C26.3671 3 24.9817 4.68652 23.4775 5.08398C21.914 5.49414 19.8655 4.73145 18.4979 5.50977C17.1145 6.2998 16.7642 8.44336 15.641 9.55078C14.5188 10.6592 12.3457 11.0049 11.5451 12.3701C10.7554 13.7129 11.5293 15.7441 11.1127 17.2773C10.7089 18.7715 9 20.1387 9 21.75C9 23.3613 10.709 24.7305 11.1118 26.2158C11.5281 27.7539 10.754 29.7803 11.5433 31.127C12.3447 32.4922 14.5159 32.834 15.638 33.9473C16.7612 35.0557 17.1115 37.1992 18.496 37.9902C19.8606 38.7694 21.913 38.0057 23.4716 38.4169C24.9817 38.8105 26.3671 40.5 27.9999 40.5C29.6327 40.5 31.0201 38.8135 32.5263 38.416C34.0859 38.0098 36.1343 38.7715 37.4999 37.9902ZM20.0833 21.75C20.0833 17.4268 23.627 13.9375 27.9999 13.9375C32.3729 13.9375 35.9166 17.4268 35.9166 21.75C35.9166 26.0635 32.3729 29.5625 27.9999 29.5625C23.627 29.5625 20.0833 26.0664 20.0833 21.75ZM9.17003 45.3047C8.84842 46.1043 8.99379 47.0117 9.55349 47.6729C10.1132 48.332 10.9914 48.6395 11.8414 48.4686L16.3133 47.5862L18.434 51.7142C18.8423 52.5117 19.6478 53 20.5484 53C20.5824 53 20.6141 52.9989 20.6481 52.9973C21.5882 52.9607 22.3947 52.4034 22.75 51.5442L26.073 43.5286C20.758 43.0756 15.9793 40.7825 12.397 37.2835L9.17003 45.3047ZM43.5958 37.2871C40.0184 40.7861 35.2387 43.0791 29.9197 43.5322L33.2427 51.5479C33.5984 52.4069 34.4045 52.9639 35.3446 53.001C35.3822 52.9121 35.3327 53 35.4515 53C36.3514 53 37.1565 52.5144 37.5642 51.7168L39.6849 47.5879L44.1568 48.4702C45.0073 48.6411 45.8857 48.3337 46.4448 47.6745C47.0045 47.0138 47.1498 46.1062 46.8282 45.3063L43.5958 37.2871Z" fill="url(#paint0_linear_782_9130)"/>
</g>
<defs>
<linearGradient id="paint0_linear_782_9130" x1="27.9983" y1="3" x2="27.9983" y2="53.001" gradientUnits="userSpaceOnUse">
<stop stop-color="#97F2B5"/>
<stop offset="1" stop-color="#62C67A"/>
</linearGradient>
<clipPath id="clip0_782_9130">
<rect width="38" height="50" fill="white" transform="translate(9 3)"/>
</clipPath>
</defs>
</svg>
