<svg width="56" height="56" viewBox="0 0 56 56" fill="none" xmlns="http://www.w3.org/2000/svg">
<path d="M27.9997 51.3332C26.9497 51.3332 26.0261 51.0804 25.2288 50.5748C24.4316 50.0693 23.9163 49.3693 23.683 48.4748H22.8663C21.933 48.4748 21.1163 48.1248 20.4163 47.4248C19.7163 46.7248 19.3663 45.9082 19.3663 44.9748V36.6332C16.7997 34.9609 14.7775 32.8221 13.2997 30.2165C11.8219 27.6109 11.083 24.7332 11.083 21.5832C11.083 16.8776 12.7261 12.8818 16.0122 9.59567C19.2983 6.30956 23.2941 4.6665 27.9997 4.6665C32.7052 4.6665 36.7011 6.30956 39.9872 9.59567C43.2733 12.8818 44.9163 16.8776 44.9163 21.5832C44.9163 24.7332 44.1774 27.6109 42.6997 30.2165C41.2219 32.8221 39.1997 34.9609 36.633 36.6332V44.9748C36.633 45.9082 36.283 46.7248 35.583 47.4248C34.883 48.1248 34.0663 48.4748 33.133 48.4748H32.3163C32.083 49.3693 31.5677 50.0693 30.7705 50.5748C29.9733 51.0804 29.0497 51.3332 27.9997 51.3332ZM22.8663 44.9748H33.133V42.4082H22.8663V44.9748ZM22.8663 40.0748H33.133V37.7415H22.8663V40.0748ZM26.658 34.2415H29.3413V26.2498L33.833 21.7582C34.0663 21.5248 34.183 21.2332 34.183 20.8832C34.183 20.5332 34.0663 20.2221 33.833 19.9498C33.5608 19.7165 33.2497 19.5998 32.8997 19.5998C32.5497 19.5998 32.258 19.7165 32.0247 19.9498L27.9997 23.9748L24.033 19.9498C23.7608 19.7165 23.4497 19.5998 23.0997 19.5998C22.7497 19.5998 22.458 19.7165 22.2247 19.9498C21.9524 20.2221 21.8163 20.5332 21.8163 20.8832C21.8163 21.2332 21.933 21.5248 22.1663 21.7582L26.658 26.2498V34.2415Z" fill="url(#paint0_linear_782_9138)"/>
<defs>
<linearGradient id="paint0_linear_782_9138" x1="27.9997" y1="4.6665" x2="27.9997" y2="51.3332" gradientUnits="userSpaceOnUse">
<stop stop-color="#FBED89"/>
<stop offset="1" stop-color="#F3D548"/>
</linearGradient>
</defs>
</svg>
