<svg width="56" height="56" viewBox="0 0 56 56" fill="none" xmlns="http://www.w3.org/2000/svg">
<path d="M4.08301 46.6668C3.57745 46.6668 3.1594 46.5015 2.82884 46.171C2.49829 45.8404 2.33301 45.4224 2.33301 44.9168V37.3335C2.33301 36.2057 2.73162 35.2432 3.52884 34.446C4.32606 33.6488 5.28856 33.2502 6.41634 33.2502H14.6413C15.3025 33.2502 15.9344 33.4154 16.5372 33.746C17.14 34.0765 17.6552 34.5335 18.083 35.1168C19.2108 36.7502 20.6497 38.014 22.3997 38.9085C24.1497 39.8029 26.0163 40.2502 27.9997 40.2502C29.983 40.2502 31.8497 39.8029 33.5997 38.9085C35.3497 38.014 36.808 36.7502 37.9747 35.1168C38.4025 34.5335 38.908 34.0765 39.4913 33.746C40.0747 33.4154 40.6969 33.2502 41.358 33.2502H49.583C50.7108 33.2502 51.6733 33.6488 52.4705 34.446C53.2677 35.2432 53.6663 36.2057 53.6663 37.3335V44.9168C53.6663 45.4224 53.5011 45.8404 53.1705 46.171C52.84 46.5015 52.4219 46.6668 51.9163 46.6668H40.2497C39.7441 46.6668 39.3261 46.5015 38.9955 46.171C38.665 45.8404 38.4997 45.4224 38.4997 44.9168V39.7252C37.0997 41.0085 35.4955 42.0002 33.6872 42.7002C31.8788 43.4002 29.983 43.7502 27.9997 43.7502C26.0163 43.7502 24.1302 43.4002 22.3413 42.7002C20.5525 42.0002 18.9386 41.0085 17.4997 39.7252V44.9168C17.4997 45.4224 17.3344 45.8404 17.0038 46.171C16.6733 46.5015 16.2552 46.6668 15.7497 46.6668H4.08301ZM27.9997 36.7502C26.6386 36.7502 25.3261 36.4293 24.0622 35.7877C22.7983 35.146 21.7775 34.2613 20.9997 33.1335C20.3775 32.239 19.6288 31.5196 18.7538 30.9752C17.8788 30.4307 16.9358 30.0613 15.9247 29.8668C17.0525 28.7002 18.8219 27.8057 21.233 27.1835C23.6441 26.5613 25.8997 26.2502 27.9997 26.2502C30.0997 26.2502 32.365 26.5613 34.7955 27.1835C37.2261 27.8057 39.0052 28.7002 40.133 29.8668C39.1219 30.0613 38.1788 30.4307 37.3038 30.9752C36.4288 31.5196 35.6802 32.239 35.058 33.1335C34.2802 34.2613 33.2594 35.146 31.9955 35.7877C30.7316 36.4293 29.3997 36.7502 27.9997 36.7502ZM9.33301 29.1668C7.54412 29.1668 6.02745 28.5446 4.78301 27.3002C3.53856 26.0557 2.91634 24.539 2.91634 22.7502C2.91634 20.9613 3.53856 19.4446 4.78301 18.2002C6.02745 16.9557 7.54412 16.3335 9.33301 16.3335C11.1219 16.3335 12.6386 16.9557 13.883 18.2002C15.1275 19.4446 15.7497 20.9613 15.7497 22.7502C15.7497 24.539 15.1275 26.0557 13.883 27.3002C12.6386 28.5446 11.1219 29.1668 9.33301 29.1668ZM46.6663 29.1668C44.8775 29.1668 43.3608 28.5446 42.1163 27.3002C40.8719 26.0557 40.2497 24.539 40.2497 22.7502C40.2497 20.9613 40.8719 19.4446 42.1163 18.2002C43.3608 16.9557 44.8775 16.3335 46.6663 16.3335C48.4552 16.3335 49.9719 16.9557 51.2163 18.2002C52.4608 19.4446 53.083 20.9613 53.083 22.7502C53.083 24.539 52.4608 26.0557 51.2163 27.3002C49.9719 28.5446 48.4552 29.1668 46.6663 29.1668ZM27.9997 22.1668C26.2108 22.1668 24.6941 21.5446 23.4497 20.3002C22.2052 19.0557 21.583 17.5391 21.583 15.7502C21.583 13.9613 22.2052 12.4446 23.4497 11.2002C24.6941 9.95572 26.2108 9.3335 27.9997 9.3335C29.7886 9.3335 31.3052 9.95572 32.5497 11.2002C33.7941 12.4446 34.4163 13.9613 34.4163 15.7502C34.4163 17.5391 33.7941 19.0557 32.5497 20.3002C31.3052 21.5446 29.7886 22.1668 27.9997 22.1668Z" fill="url(#paint0_linear_782_9145)"/>
<defs>
<linearGradient id="paint0_linear_782_9145" x1="27.9997" y1="9.3335" x2="27.9997" y2="46.6668" gradientUnits="userSpaceOnUse">
<stop stop-color="#CD9EF1"/>
<stop offset="1" stop-color="#940DFF"/>
<stop offset="1" stop-color="#9C56D2"/>
</linearGradient>
</defs>
</svg>
