<svg width="48" height="48" viewBox="0 0 48 48" fill="none" xmlns="http://www.w3.org/2000/svg">
<g opacity="0.64">
<path d="M46.6969 21.9566C47.4938 22.3223 48 23.1191 48 23.916C48 24.8723 47.4938 25.6691 46.6969 26.0441L26.2031 35.5129C24.8062 36.1598 23.1938 36.1598 21.7969 35.5129L1.30594 26.0441C0.509813 25.6691 0 24.8723 0 23.916C0 23.1191 0.509719 22.3223 1.30594 21.9566L6.29344 19.6504L20.5406 26.2316C22.7344 27.2535 25.2656 27.2535 27.4594 26.2316L41.7094 19.6504L46.6969 21.9566Z" fill="#307FF5"/>
<path d="M46.6969 21.9566C47.4938 22.3223 48 23.1191 48 23.916C48 24.8723 47.4938 25.6691 46.6969 26.0441L26.2031 35.5129C24.8062 36.1598 23.1938 36.1598 21.7969 35.5129L1.30594 26.0441C0.509813 25.6691 0 24.8723 0 23.916C0 23.1191 0.509719 22.3223 1.30594 21.9566L6.29344 19.6504L20.5406 26.2316C22.7344 27.2535 25.2656 27.2535 27.4594 26.2316L41.7094 19.6504L46.6969 21.9566Z" fill="url(#paint0_linear_782_9093)"/>
<path d="M46.6969 21.9566C47.4938 22.3223 48 23.1191 48 23.916C48 24.8723 47.4938 25.6691 46.6969 26.0441L26.2031 35.5129C24.8062 36.1598 23.1938 36.1598 21.7969 35.5129L1.30594 26.0441C0.509813 25.6691 0 24.8723 0 23.916C0 23.1191 0.509719 22.3223 1.30594 21.9566L6.29344 19.6504L20.5406 26.2316C22.7344 27.2535 25.2656 27.2535 27.4594 26.2316L41.7094 19.6504L46.6969 21.9566Z" fill="url(#paint1_linear_782_9093)"/>
</g>
<g opacity="0.4">
<path d="M27.4594 38.2316L41.7094 31.6504L46.6969 33.9566C47.4938 34.3223 48 35.1191 48 35.916C48 36.8723 47.4938 37.6691 46.6969 38.0441L26.2031 47.5129C24.8062 48.1598 23.1938 48.1598 21.7969 47.5129L1.30594 38.0441C0.509813 37.6691 0 36.8723 0 35.916C0 35.1191 0.509719 34.3223 1.30594 33.9566L6.29344 31.6504L20.5406 38.2316C22.7344 39.2535 25.2656 39.2535 27.4594 38.2316Z" fill="#307FF5"/>
<path d="M27.4594 38.2316L41.7094 31.6504L46.6969 33.9566C47.4938 34.3223 48 35.1191 48 35.916C48 36.8723 47.4938 37.6691 46.6969 38.0441L26.2031 47.5129C24.8062 48.1598 23.1938 48.1598 21.7969 47.5129L1.30594 38.0441C0.509813 37.6691 0 36.8723 0 35.916C0 35.1191 0.509719 34.3223 1.30594 33.9566L6.29344 31.6504L20.5406 38.2316C22.7344 39.2535 25.2656 39.2535 27.4594 38.2316Z" fill="url(#paint2_linear_782_9093)"/>
<path d="M27.4594 38.2316L41.7094 31.6504L46.6969 33.9566C47.4938 34.3223 48 35.1191 48 35.916C48 36.8723 47.4938 37.6691 46.6969 38.0441L26.2031 47.5129C24.8062 48.1598 23.1938 48.1598 21.7969 47.5129L1.30594 38.0441C0.509813 37.6691 0 36.8723 0 35.916C0 35.1191 0.509719 34.3223 1.30594 33.9566L6.29344 31.6504L20.5406 38.2316C22.7344 39.2535 25.2656 39.2535 27.4594 38.2316Z" fill="url(#paint3_linear_782_9093)"/>
</g>
<path d="M21.7969 0.484871C23.1938 -0.160973 24.8062 -0.160973 26.2031 0.484871L46.6969 9.95634C47.4938 10.322 48 11.1188 48 11.9157C48 12.872 47.4938 13.6688 46.6969 14.0438L26.2031 23.5126C24.8062 24.1595 23.1938 24.1595 21.7969 23.5126L1.30594 14.0438C0.509813 13.6688 0 12.872 0 11.9157C0 11.1188 0.509719 10.322 1.30594 9.95634L21.7969 0.484871Z" fill="#307FF5"/>
<path d="M21.7969 0.484871C23.1938 -0.160973 24.8062 -0.160973 26.2031 0.484871L46.6969 9.95634C47.4938 10.322 48 11.1188 48 11.9157C48 12.872 47.4938 13.6688 46.6969 14.0438L26.2031 23.5126C24.8062 24.1595 23.1938 24.1595 21.7969 23.5126L1.30594 14.0438C0.509813 13.6688 0 12.872 0 11.9157C0 11.1188 0.509719 10.322 1.30594 9.95634L21.7969 0.484871Z" fill="url(#paint4_linear_782_9093)"/>
<path d="M21.7969 0.484871C23.1938 -0.160973 24.8062 -0.160973 26.2031 0.484871L46.6969 9.95634C47.4938 10.322 48 11.1188 48 11.9157C48 12.872 47.4938 13.6688 46.6969 14.0438L26.2031 23.5126C24.8062 24.1595 23.1938 24.1595 21.7969 23.5126L1.30594 14.0438C0.509813 13.6688 0 12.872 0 11.9157C0 11.1188 0.509719 10.322 1.30594 9.95634L21.7969 0.484871Z" fill="url(#paint5_linear_782_9093)"/>
<defs>
<linearGradient id="paint0_linear_782_9093" x1="48" y1="35.998" x2="-0.814374" y2="33.026" gradientUnits="userSpaceOnUse">
<stop stop-color="#307DF6"/>
<stop offset="1" stop-color="#14BBBF"/>
</linearGradient>
<linearGradient id="paint1_linear_782_9093" x1="48" y1="35.998" x2="-0.814374" y2="33.026" gradientUnits="userSpaceOnUse">
<stop stop-color="#4433F1"/>
<stop offset="1" stop-color="#628EFF"/>
</linearGradient>
<linearGradient id="paint2_linear_782_9093" x1="48" y1="47.998" x2="-0.814374" y2="45.026" gradientUnits="userSpaceOnUse">
<stop stop-color="#307DF6"/>
<stop offset="1" stop-color="#14BBBF"/>
</linearGradient>
<linearGradient id="paint3_linear_782_9093" x1="48" y1="47.998" x2="-0.814374" y2="45.026" gradientUnits="userSpaceOnUse">
<stop stop-color="#4433F1"/>
<stop offset="1" stop-color="#628EFF"/>
</linearGradient>
<linearGradient id="paint4_linear_782_9093" x1="48" y1="23.9977" x2="-0.911185" y2="21.9691" gradientUnits="userSpaceOnUse">
<stop stop-color="#307DF6"/>
<stop offset="1" stop-color="#14BBBF"/>
</linearGradient>
<linearGradient id="paint5_linear_782_9093" x1="48" y1="23.9977" x2="-0.911185" y2="21.9691" gradientUnits="userSpaceOnUse">
<stop stop-color="#4433F1"/>
<stop offset="1" stop-color="#628EFF"/>
</linearGradient>
</defs>
</svg>
